<svg width="238" height="16" viewBox="0 0 238 16" fill="none" xmlns="http://www.w3.org/2000/svg">
<path d="M0 0.270422H11.9754V3.04225H3.49384V6.8507H11.0839V9.62253H3.49384V15.7296H0V0.270422Z" fill="#FCFCFC"/>
<path d="M15.4531 0.270422H18.9469V15.7296H15.4531V0.270422Z" fill="#FCFCFC"/>
<path d="M22.8822 0.270422H26.2797L32.6409 8.67606C32.8336 8.93146 33.1549 9.43474 33.6047 10.1859L33.7252 10.1183L33.6529 8.81127V0.270422H37.0503V15.7296H33.6529L27.2676 7.25634C26.9624 6.8507 26.6491 6.35493 26.3279 5.76901L26.2074 5.83662C26.2556 6.48263 26.2797 6.93333 26.2797 7.18873V15.7296H22.8822V0.270422Z" fill="#FCFCFC"/>
<path d="M45.8857 0.270422H50.271L56.7286 15.7296H52.9215L51.7408 12.7775H44.2231L43.0424 15.7296H39.4281L45.8857 0.270422ZM50.6325 10.0507L49.0662 6.12958C48.8735 5.64883 48.5281 4.63474 48.0301 3.08732H47.9097C47.4117 4.63474 47.0663 5.64883 46.8736 6.12958L45.3074 10.0507H50.6325Z" fill="#FCFCFC"/>
<path d="M59.1063 0.270422H62.5038L68.865 8.67606C69.0578 8.93146 69.379 9.43474 69.8288 10.1859L69.9493 10.1183L69.877 8.81127V0.270422H73.2745V15.7296H69.877L63.4917 7.25634C63.1865 6.8507 62.8733 6.35493 62.552 5.76901L62.4315 5.83662C62.4797 6.48263 62.5038 6.93333 62.5038 7.18873V15.7296H59.1063V0.270422Z" fill="#FCFCFC"/>
<path d="M84.6157 16C79.2826 16 76.616 13.3333 76.616 8C76.616 5.32582 77.3148 3.3277 78.7123 2.00563C80.1098 0.668544 82.0776 0 84.6157 0C86.0132 0 87.2662 0.225352 88.3746 0.676056C89.499 1.11174 90.3825 1.78779 91.0251 2.70423C91.6837 3.60563 92.013 4.70986 92.013 6.0169H88.4228C88.4228 5.01033 88.0774 4.2216 87.3867 3.6507C86.6959 3.06479 85.7964 2.77183 84.688 2.77183C83.178 2.77183 82.0536 3.19249 81.3146 4.0338C80.5757 4.87512 80.2062 6.08451 80.2062 7.66197V8.33803C80.2062 11.5981 81.7001 13.2282 84.688 13.2282C85.8606 13.2282 86.7923 12.9427 87.4831 12.3718C88.1899 11.8009 88.5433 11.0122 88.5433 10.0056H92.013C92.013 11.3277 91.6917 12.4394 91.0492 13.3408C90.4066 14.2272 89.5312 14.8958 88.4228 15.3465C87.3144 15.7822 86.0454 16 84.6157 16Z" fill="#FCFCFC"/>
<path d="M95.3305 0.270422H108.318V3.04225H98.8243V6.44507H107.258V9.2169H98.8243V12.9577H108.462V15.7296H95.3305V0.270422Z" fill="#FCFCFC"/>
<path d="M124.228 16C122.397 16 120.992 15.6094 120.012 14.8282C119.032 14.0469 118.542 12.8977 118.542 11.3803V10.4113H122.012V11.3352C122.012 11.9512 122.196 12.4244 122.566 12.7549C122.951 13.0854 123.506 13.2507 124.228 13.2507C124.935 13.2507 125.465 13.0854 125.819 12.7549C126.172 12.4244 126.349 11.9512 126.349 11.3352V0.270422H129.867V11.3803C129.867 12.8977 129.385 14.0469 128.421 14.8282C127.457 15.6094 126.06 16 124.228 16Z" fill="#FCFCFC"/>
<path d="M141.424 16C138.774 16 136.718 15.339 135.256 14.0169C133.794 12.6798 133.063 10.6742 133.063 8C133.063 5.32582 133.794 3.3277 135.256 2.00563C136.718 0.668544 138.774 0 141.424 0C144.091 0 146.155 0.668544 147.617 2.00563C149.079 3.3277 149.81 5.32582 149.81 8C149.81 10.6742 149.079 12.6798 147.617 14.0169C146.155 15.339 144.091 16 141.424 16ZM141.424 13.2282C142.999 13.2282 144.187 12.8075 144.991 11.9662C145.81 11.1099 146.219 9.90047 146.219 8.33803V7.66197C146.219 6.09953 145.81 4.89765 144.991 4.05634C144.187 3.2 142.999 2.77183 141.424 2.77183C139.85 2.77183 138.662 3.2 137.858 4.05634C137.055 4.89765 136.654 6.09953 136.654 7.66197V8.33803C136.654 9.90047 137.055 11.1099 137.858 11.9662C138.662 12.8075 139.85 13.2282 141.424 13.2282Z" fill="#FCFCFC"/>
<path d="M160.203 16C157.97 16 156.235 15.4892 154.998 14.4676C153.761 13.446 153.143 11.9512 153.143 9.9831V0.270422H156.636V9.82535C156.636 10.9371 156.942 11.7859 157.552 12.3718C158.179 12.9427 159.062 13.2282 160.203 13.2282C161.343 13.2282 162.227 12.9427 162.853 12.3718C163.496 11.7859 163.817 10.9371 163.817 9.82535V0.270422H167.311V9.9831C167.311 11.9512 166.684 13.446 165.431 14.4676C164.194 15.4892 162.451 16 160.203 16Z" fill="#FCFCFC"/>
<path d="M171.255 0.270422H180.025C181.873 0.270422 183.262 0.698591 184.194 1.55493C185.126 2.39624 185.591 3.5831 185.591 5.11549C185.591 7.27887 184.628 8.72113 182.7 9.44225L186.073 15.7296H182.29L179.375 9.96056H174.749V15.7296H171.255V0.270422ZM179.712 7.2338C180.467 7.2338 181.045 7.04601 181.447 6.67042C181.849 6.29484 182.049 5.77653 182.049 5.11549C182.049 4.45446 181.849 3.94366 181.447 3.5831C181.045 3.22253 180.467 3.04225 179.712 3.04225H174.749V7.2338H179.712Z" fill="#FCFCFC"/>
<path d="M189.367 0.270422H192.764L199.125 8.67606C199.318 8.93146 199.639 9.43474 200.089 10.1859L200.21 10.1183L200.137 8.81127V0.270422H203.535V15.7296H200.137L193.752 7.25634C193.447 6.8507 193.134 6.35493 192.812 5.76901L192.692 5.83662C192.74 6.48263 192.764 6.93333 192.764 7.18873V15.7296H189.367V0.270422Z" fill="#FCFCFC"/>
<path d="M212.37 0.270422H216.756L223.213 15.7296H219.406L218.225 12.7775H210.708L209.527 15.7296H205.913L212.37 0.270422ZM217.117 10.0507L215.551 6.12958C215.358 5.64883 215.013 4.63474 214.515 3.08732H214.394C213.896 4.63474 213.551 5.64883 213.358 6.12958L211.792 10.0507H217.117Z" fill="#FCFCFC"/>
<path d="M225.591 0.270422H229.085V12.8901H238V15.7296H225.591V0.270422Z" fill="#FCFCFC"/>
</svg>
