<svg width="28" height="16" viewBox="0 0 28 16" fill="none" xmlns="http://www.w3.org/2000/svg">
<path fill-rule="evenodd" clip-rule="evenodd" d="M13.6993 15.933H15.373C15.373 15.933 15.8785 15.8774 16.1366 15.5987C16.3742 15.3429 16.3666 14.8623 16.3666 14.8623C16.3666 14.8623 16.3339 12.6129 17.3762 12.2816C18.4037 11.9553 19.723 14.4557 21.1215 15.4171C22.179 16.1447 22.9826 15.9852 22.9826 15.9852L26.7218 15.933C26.7218 15.933 28.6779 15.8123 27.7504 14.2718C27.6744 14.1458 27.2103 13.1322 24.9702 11.0495C22.6256 8.86975 22.9396 9.22232 25.7639 5.45177C27.4839 3.15547 28.1716 1.75356 27.9568 1.15312C27.7519 0.581231 26.4869 0.732388 26.4869 0.732388L22.2767 0.75866C22.2767 0.75866 21.9646 0.716016 21.7331 0.854608C21.507 0.990536 21.3614 1.30732 21.3614 1.30732C21.3614 1.30732 20.695 3.08427 19.8063 4.59546C17.9315 7.78423 17.182 7.95252 16.8756 7.75453C16.1629 7.29307 16.3407 5.90067 16.3407 4.91149C16.3407 1.82133 16.8087 0.532877 15.4296 0.199341C14.9719 0.0885435 14.6352 0.0154398 13.4648 0.00363663C11.9625 -0.0119741 10.691 0.00820511 9.97109 0.36154C9.49214 0.596462 9.12266 1.11999 9.34769 1.15007C9.62594 1.18738 10.2562 1.32026 10.5903 1.77602C11.0217 2.3639 11.0065 3.68433 11.0065 3.68433C11.0065 3.68433 11.2544 7.322 10.4276 7.77395C9.86009 8.08388 9.08161 7.45108 7.41022 4.55815C6.55381 3.07628 5.90723 1.4383 5.90723 1.4383C5.90723 1.4383 5.78255 1.13217 5.56018 0.968452C5.2903 0.770082 4.91322 0.706879 4.91322 0.706879L0.912464 0.73315C0.912464 0.73315 0.311876 0.749904 0.0914065 1.01148C-0.104735 1.24412 0.0758215 1.72538 0.0758215 1.72538C0.0758215 1.72538 3.208 9.06545 6.75452 12.7644C10.0064 16.1558 13.6993 15.933 13.6993 15.933Z" fill="#FCFCFC"/>
</svg>
