<svg width="22" height="22" viewBox="0 0 22 22" fill="none" xmlns="http://www.w3.org/2000/svg">
<path d="M13.9331 10.9882C13.9331 12.6082 12.6198 13.9215 10.9998 13.9215C9.37975 13.9215 8.06645 12.6082 8.06645 10.9882C8.06645 9.36817 9.37975 8.05487 10.9998 8.05487C12.6198 8.05487 13.9331 9.36817 13.9331 10.9882Z" fill="#FCFCFC"/>
<path fill-rule="evenodd" clip-rule="evenodd" d="M0 5.13333C0 2.29827 2.29827 0 5.13333 0H16.8667C19.7017 0 22 2.29827 22 5.13333V16.8667C22 19.7017 19.7017 22 16.8667 22H5.13333C2.29827 22 0 19.7017 0 16.8667V5.13333ZM18.1367 5.13338C18.1367 5.94339 17.4801 6.60004 16.6701 6.60004C15.86 6.60004 15.2034 5.94339 15.2034 5.13338C15.2034 4.32336 15.86 3.66671 16.6701 3.66671C17.4801 3.66671 18.1367 4.32336 18.1367 5.13338ZM16.4998 10.9882C16.4998 14.0258 14.0374 16.4882 10.9998 16.4882C7.96222 16.4882 5.49979 14.0258 5.49979 10.9882C5.49979 7.95064 7.96222 5.4882 10.9998 5.4882C14.0374 5.4882 16.4998 7.95064 16.4998 10.9882Z" fill="#FCFCFC"/>
</svg>
