<svg width="23" height="18" viewBox="0 0 23 18" fill="none" xmlns="http://www.w3.org/2000/svg">
<path d="M22.9989 2.1368C22.1375 2.50356 21.224 2.74443 20.2886 2.85143C21.2745 2.28389 22.0124 1.39068 22.3647 0.338258C21.4395 0.868262 20.4251 1.2397 19.3679 1.44062C18.6577 0.709238 17.7164 0.22418 16.6903 0.0608579C15.6642 -0.102464 14.6108 0.0651004 13.6938 0.537501C12.7768 1.0099 12.0477 1.76067 11.6197 2.67309C11.1918 3.58551 11.089 4.60846 11.3274 5.58291C9.45106 5.49239 7.61551 5.02306 5.93988 4.2054C4.26425 3.38774 2.78601 2.24003 1.60111 0.836766C1.18169 1.53017 0.961292 2.31842 0.96247 3.12078C0.96247 4.69559 1.79518 6.08685 3.06118 6.9014C2.31197 6.8787 1.57926 6.68395 0.924107 6.33339V6.38986C0.924333 7.43868 1.30139 8.45516 1.99134 9.26694C2.68129 10.0787 3.64168 10.6358 4.70967 10.8439C4.01418 11.0253 3.28493 11.052 2.57712 10.922C2.87824 11.8248 3.46513 12.6144 4.25562 13.1801C5.04612 13.7459 6.00064 14.0595 6.98553 14.0771C6.00667 14.8171 4.88589 15.3641 3.68727 15.6868C2.48864 16.0096 1.23567 16.1018 0 15.9582C2.15704 17.2934 4.66804 18.0023 7.23263 18C15.9129 18 20.6598 11.0784 20.6598 5.07571C20.6598 4.88022 20.6542 4.68255 20.6452 4.48923C21.5691 3.84646 22.3666 3.05021 23 2.13788L22.9989 2.1368Z" fill="#FCFCFC"/>
</svg>
